<?xml version="1.0" ?><svg enable-background="new 0 0 64 64" height="64px" id="Layer_1" version="1.1" viewBox="0 0 64 64" width="64px" xml:space="preserve" xmlns="http://www.w3.org/2000/svg" xmlns:xlink="http://www.w3.org/1999/xlink"><circle cx="32" cy="32" fill="#77B3D4" r="32"/><g opacity="0.2"><path d="M50.328,29h-5.656h-6.344h-5.656h-6.344h-5.656H12v7v15c0,1.105,0.895,2,2,2h36c1.105,0,2-0.895,2-2V36v-7   H50.328z" fill="#231F20"/><path d="M18.063,27.735l6.092-1.271l5.432-1.133l6.092-1.271l5.431-1.133l10.048-2.096l-1.225-5.874   c-0.226-1.081-1.285-1.775-2.366-1.549l-0.56,0.117l-5.431,1.133l-6.092,1.271l-5.431,1.133l-6.092,1.271l-5.431,1.133   l-6.203,1.294c-1.081,0.226-1.775,1.285-1.55,2.366L12,29l0.631-0.132L18.063,27.735z" fill="#231F20"/></g><path d="M12,34v15c0,1.105,0.895,2,2,2h36c1.105,0,2-0.895,2-2V34H12z" fill="#4F5D73"/><g><polygon fill="#4F5D73" points="12,27 12,34 13.672,34 20.672,27  "/><polygon fill="#4F5D73" points="38.328,27 31.328,34 37.672,34 44.672,27  "/><polygon fill="#4F5D73" points="26.328,27 19.328,34 25.672,34 32.672,27  "/><polygon fill="#FFFFFF" points="20.672,27 13.672,34 19.328,34 26.328,27  "/><polygon fill="#FFFFFF" points="32.672,27 25.672,34 31.328,34 38.328,27  "/><polygon fill="#FFFFFF" points="44.672,27 37.672,34 43.328,34 50.328,27  "/><g><polygon fill="#4F5D73" points="52,27 50.328,27 43.328,34 49.344,34 52,31.344   "/><polygon fill="#FFFFFF" points="49.344,34 52,34 52,31.344   "/></g></g><g><polygon fill="#4F5D73" points="23.959,16.333 18.063,25.735 24.155,24.465 30.051,15.062  "/><polygon fill="#4F5D73" points="35.482,13.929 29.586,23.331 35.678,22.061 41.574,12.658  "/><path d="M12.324,18.76c-1.081,0.226-1.775,1.285-1.55,2.366L12,27l0.631-0.132l5.896-9.402L12.324,18.76z" fill="#4F5D73"/><polygon fill="#FFFFFF" points="18.528,17.466 12.631,26.868 18.063,25.735 23.959,16.333  "/><polygon fill="#FFFFFF" points="30.051,15.062 24.155,24.465 29.586,23.331 35.482,13.929  "/><polygon fill="#FFFFFF" points="47.006,11.525 41.574,12.658 35.678,22.061 41.109,20.927  "/><g><path d="M49.932,12.958c-0.226-1.081-1.285-1.775-2.366-1.549l-0.56,0.117l-5.896,9.402l6.108-1.274l3.085-4.919    L49.932,12.958z" fill="#4F5D73"/><polygon fill="#FFFFFF" points="50.302,14.734 47.217,19.653 51.157,18.831   "/></g></g><circle cx="13" cy="29" fill="#231F20" opacity="0.2" r="3"/><circle cx="13" cy="27" fill="#4F5D73" r="3"/></svg>