<?xml version="1.0" ?><svg enable-background="new 0 0 64 64" height="64px" id="Layer_1" version="1.1" viewBox="0 0 64 64" width="64px" xml:space="preserve" xmlns="http://www.w3.org/2000/svg" xmlns:xlink="http://www.w3.org/1999/xlink"><circle cx="32" cy="32" fill="#E0995E" r="32"/><path d="M48,38c0,1.105-0.895,2-2,2H18c-1.105,0-2-0.895-2-2V16.062c0-1.105,0.895-2,2-2h28c1.105,0,2,0.895,2,2V38z  " fill="#E0E0D1"/><polygon fill="#FFFFFF" points="14,40 16,37 48,37 50,40 "/><circle cx="32" cy="29" fill="#231F20" opacity="0.2" r="8"/><g><circle cx="32" cy="27" fill="#77B3D4" r="6.5"/><path d="M32,22c2.757,0,5,2.243,5,5s-2.243,5-5,5s-5-2.243-5-5S29.243,22,32,22 M32,19c-4.418,0-8,3.582-8,8   s3.582,8,8,8c4.418,0,8-3.582,8-8S36.418,19,32,19L32,19z" fill="#4F5D73"/></g><circle cx="20.5" cy="34.5" fill="#231F20" opacity="0.2" r="2.5"/><circle cx="20.5" cy="32.5" fill="#C75C5C" r="2.5"/><g><rect fill="#E0E0D1" height="2" width="36" x="14" y="40"/></g><path d="M40,22c0,1.105,0.895,2,2,2h4c1.105,0,2-0.895,2-2v-4c0-1.105-0.895-2-2-2h-4  c-1.105,0-2,0.895-2,2V22z" fill="#231F20" opacity="0.2"/><path d="M40,20c0,1.105,0.895,2,2,2h4c1.105,0,2-0.895,2-2v-4c0-1.105-0.895-2-2-2h-4c-1.105,0-2,0.895-2,2V20z" fill="#4F5D73"/><g opacity="0.2"><path d="M14,46c0,3.314,2.686,6,6,6h24c3.314,0,6-2.686,6-6v-2H14V46z" fill="#231F20"/></g><g><path d="M14,44c0,3.314,2.686,6,6,6h24c3.314,0,6-2.686,6-6v-2H14V44z" fill="#4F5D73"/></g></svg>