<?xml version="1.0"?>
<svg enable-background="new 0 0 64 64" height="64px" id="Layer_1" version="1.1" viewBox="0 0 64 64" width="64px" xml:space="preserve" xmlns="http://www.w3.org/2000/svg" xmlns:xlink="http://www.w3.org/1999/xlink">
    <circle cx="32" cy="32" fill="#ececec" r="32" />
    <path d="M52,49c0,1.105-0.895,2-2,2H14c-1.105,0-2-0.895-2-2V19c0-1.105,0.895-2,2-2h36  c1.105,0,2,0.895,2,2V49z" fill="#231F20" opacity="0.2" />
    <path d="M52,47c0,1.105-0.895,2-2,2H14c-1.105,0-2-0.895-2-2V17c0-1.105,0.895-2,2-2h36c1.105,0,2,0.895,2,2V47z" fill="#4F5D73" />
    <path d="M48,37c0,1.105-0.895,2-2,2H18c-1.105,0-2-0.895-2-2V20.875c0-1.105,0.895-2,2-2h28c1.105,0,2,0.895,2,2V37z  " fill="#E0E0D1" />
    <g opacity="0.2">
        <path d="M46,18.875H18c-1.105,0-2,0.895-2,2V22c0-1.105,0.895-2,2-2h28c1.105,0,2,0.895,2,2v-1.125   C48,19.77,47.105,18.875,46,18.875z" fill="#231F20" />
    </g>
    <path d="M20,45c0,1.105-0.895,2-2,2l0,0c-1.105,0-2-0.895-2-2l0,0c0-1.105,0.895-2,2-2l0,0  C19.105,43,20,43.895,20,45L20,45z" fill="#231F20" opacity="0.2" />
    <path d="M48,45c0,1.105-0.895,2-2,2l0,0c-1.105,0-2-0.895-2-2l0,0c0-1.105,0.895-2,2-2l0,0  C47.105,43,48,43.895,48,45L48,45z" fill="#231F20" opacity="0.2" />
    <path d="M20,44c0,1.105-0.895,2-2,2l0,0c-1.105,0-2-0.895-2-2l0,0c0-1.105,0.895-2,2-2l0,0  C19.105,42,20,42.895,20,44L20,44z" fill="#76C2AF" />
    <path d="M48,44c0,1.105-0.895,2-2,2l0,0c-1.105,0-2-0.895-2-2l0,0c0-1.105,0.895-2,2-2l0,0  C47.105,42,48,42.895,48,44L48,44z" fill="#76C2AF" />
    <path d="M25,45c0,0.552-0.448,1-1,1l0,0c-0.552,0-1-0.448-1-1v-2c0-0.552,0.448-1,1-1l0,0c0.552,0,1,0.448,1,1V45z" fill="#f5cf87" />
    <path d="M29,45c0,0.552-0.448,1-1,1l0,0c-0.552,0-1-0.448-1-1v-2c0-0.552,0.448-1,1-1l0,0c0.552,0,1,0.448,1,1V45z" fill="#f5cf87" />
    <path d="M37,45c0,0.552-0.448,1-1,1l0,0c-0.552,0-1-0.448-1-1v-2c0-0.552,0.448-1,1-1l0,0c0.552,0,1,0.448,1,1V45z" fill="#f5cf87" />
    <path d="M41,45c0,0.552-0.448,1-1,1l0,0c-0.552,0-1-0.448-1-1v-2c0-0.552,0.448-1,1-1l0,0c0.552,0,1,0.448,1,1V45z" fill="#f5cf87" />
    <path d="M33,45c0,0.552-0.448,1-1,1l0,0c-0.552,0-1-0.448-1-1v-2c0-0.552,0.448-1,1-1l0,0c0.552,0,1,0.448,1,1V45z" fill="#f5cf87" />
    <g opacity="0.2">
        <path d="M24,42c-0.552,0-1,0.448-1,1v1c0-0.552,0.448-1,1-1c0.552,0,1,0.448,1,1v-1C25,42.448,24.552,42,24,42z" fill="#231F20" />
        <path d="M28,42c-0.552,0-1,0.448-1,1v1c0-0.552,0.448-1,1-1c0.552,0,1,0.448,1,1v-1C29,42.448,28.552,42,28,42z" fill="#231F20" />
        <path d="M36,42c-0.552,0-1,0.448-1,1v1c0-0.552,0.448-1,1-1c0.552,0,1,0.448,1,1v-1C37,42.448,36.552,42,36,42z" fill="#231F20" />
        <path d="M40,42c-0.552,0-1,0.448-1,1v1c0-0.552,0.448-1,1-1c0.552,0,1,0.448,1,1v-1C41,42.448,40.552,42,40,42z" fill="#231F20" />
        <path d="M32,42c-0.552,0-1,0.448-1,1v1c0-0.552,0.448-1,1-1c0.552,0,1,0.448,1,1v-1C33,42.448,32.552,42,32,42z" fill="#231F20" />
    </g>
    <g>
        <path d="M48,37V20.875c0-1.105-0.895-2-2-2H25.503L37.078,39H46C47.105,39,48,38.105,48,37z" fill="#FFFFFF" opacity="0.2" />
    </g>
</svg>