<?xml version="1.0" ?><svg enable-background="new 0 0 64 64" height="64px" id="Layer_1" version="1.1" viewBox="0 0 64 64" width="64px" xml:space="preserve" xmlns="http://www.w3.org/2000/svg" xmlns:xlink="http://www.w3.org/1999/xlink"><circle cx="32" cy="32" fill="#ececec" r="32"/><g opacity="0.2"><ellipse cx="32" cy="24" fill="#231F20" rx="2.293" ry="2.293" transform="matrix(0.7071 -0.7071 0.7071 0.7071 -7.5982 29.6563)"/><path d="M35.889,30.01c0.292,0.293,0.677,0.439,1.061,0.439s0.768-0.146,1.061-0.439   c1.605-1.605,2.49-3.74,2.49-6.01c0-2.27-0.884-4.405-2.49-6.01c-0.586-0.586-1.535-0.586-2.121,0   c-0.586,0.585-0.586,1.536,0,2.121C36.928,21.15,37.5,22.531,37.5,24c0,1.469-0.572,2.85-1.611,3.889   C35.303,28.475,35.303,29.424,35.889,30.01z" fill="#231F20"/><path d="M43.722,24c0,2.538-0.988,4.923-2.782,6.718c-0.586,0.585-0.586,1.536,0,2.121   c0.293,0.293,0.677,0.439,1.061,0.439c0.384,0,0.768-0.146,1.06-0.439c2.361-2.361,3.661-5.5,3.661-8.839s-1.3-6.478-3.661-8.838   c-0.586-0.586-1.536-0.586-2.121,0c-0.586,0.586-0.586,1.536,0,2.121C42.734,19.077,43.722,21.462,43.722,24z" fill="#231F20"/><path d="M25.99,30.01c0.293,0.293,0.677,0.439,1.061,0.439s0.768-0.146,1.061-0.439   c0.586-0.586,0.586-1.536,0-2.121C27.072,26.85,26.5,25.469,26.5,24c0-1.469,0.572-2.85,1.611-3.889   c0.586-0.585,0.586-1.536,0-2.121c-0.586-0.586-1.535-0.586-2.121,0c-1.605,1.605-2.49,3.74-2.49,6.01   C23.5,26.271,24.384,28.405,25.99,30.01z" fill="#231F20"/><path d="M22,33.278c0.384,0,0.768-0.146,1.06-0.439c0.586-0.586,0.586-1.536,0-2.121   c-1.794-1.795-2.782-4.18-2.782-6.718s0.988-4.923,2.782-6.717c0.586-0.585,0.586-1.535,0-2.121c-0.586-0.586-1.535-0.586-2.121,0   c-2.361,2.361-3.661,5.5-3.661,8.838s1.3,6.478,3.661,8.839C21.232,33.132,21.616,33.278,22,33.278z" fill="#231F20"/><path d="M33.388,29.995c-0.23-0.564-0.779-0.932-1.388-0.932c-0.609,0-1.158,0.368-1.388,0.932l-10,24.437   c-0.314,0.767,0.053,1.643,0.82,1.956c0.766,0.314,1.642-0.053,1.956-0.82l3.51-8.578C26.933,46.992,26.965,47,27,47h10   c0.035,0,0.067-0.008,0.101-0.01l3.51,8.578C40.85,56.149,41.41,56.5,42,56.5c0.189,0,0.382-0.036,0.567-0.112   c0.767-0.313,1.134-1.189,0.82-1.956L33.388,29.995z M32,34.523L33.423,38h-2.845L32,34.523z M28.122,44l1.228-3h5.301l1.228,3   H28.122z" fill="#231F20"/></g><ellipse cx="32" cy="22" fill="#4F5D73" rx="2.293" ry="2.293" transform="matrix(0.7071 -0.7071 0.7071 0.7071 -6.1838 29.0711)"/><path d="M36.95,17.05  c2.734,2.734,2.734,7.166,0,9.899" fill="none" stroke="#4F5D73" stroke-linecap="round" stroke-miterlimit="10" stroke-width="3"/><path d="M42,14.222  c4.296,4.296,4.296,11.261,0,15.556" fill="none" stroke="#4F5D73" stroke-linecap="round" stroke-miterlimit="10" stroke-width="3"/><path d="M27.05,17.05  c-2.734,2.734-2.734,7.166,0,9.899" fill="none" stroke="#4F5D73" stroke-linecap="round" stroke-miterlimit="10" stroke-width="3"/><path d="M22,14.222  c-4.296,4.296-4.296,11.261,0,15.556" fill="none" stroke="#4F5D73" stroke-linecap="round" stroke-miterlimit="10" stroke-width="3"/><polyline fill="none" points="  22,53 32,28.563 42,53 " stroke="#4F5D73" stroke-linecap="round" stroke-linejoin="round" stroke-miterlimit="10" stroke-width="3"/><line fill="none" stroke="#4F5D73" stroke-linecap="round" stroke-miterlimit="10" stroke-width="3" x1="29" x2="35" y1="37.5" y2="37.5"/><line fill="none" stroke="#4F5D73" stroke-linecap="round" stroke-miterlimit="10" stroke-width="3" x1="27" x2="37" y1="43.5" y2="43.5"/></svg>