<?xml version="1.0" encoding="UTF-8" standalone="no"?>
<svg
   xmlns:dc="http://purl.org/dc/elements/1.1/"
   xmlns:cc="http://creativecommons.org/ns#"
   xmlns:rdf="http://www.w3.org/1999/02/22-rdf-syntax-ns#"
   xmlns:svg="http://www.w3.org/2000/svg"
   xmlns="http://www.w3.org/2000/svg"
   viewBox="0 0 601.10669 184.56"
   height="184.56"
   width="601.10669"
   xml:space="preserve"
   id="svg2"
   version="1.1"><metadata
     id="metadata8"><rdf:RDF><cc:Work
         rdf:about=""><dc:format>image/svg+xml</dc:format><dc:type
           rdf:resource="http://purl.org/dc/dcmitype/StillImage" /></cc:Work></rdf:RDF></metadata><defs
     id="defs6" /><g
     transform="matrix(1.3333333,0,0,-1.3333333,0,184.56)"
     id="g10"><g
       transform="scale(0.1)"
       id="g12"><path
         id="path14"
         style="fill:transparent;fill-opacity:1;fill-rule:nonzero;stroke:none"
         d="M 0,0 H 4508.27 V 1384.24 H 0 V 0" /><path
         id="path16"
         style="fill:#1969bc;fill-opacity:1;fill-rule:nonzero;stroke:none"
         d="m 1036.66,875.645 v 167.715 c 0.21,5.88 5.09,10.48 10.94,10.39 57.21,-3.48 109.2,-8.5 153.64,-14.77 l 0.15,-0.03 c 4.16,-0.5 7.62,-3.41 8.91,-7.36 h 0.02 l 0.05,-0.18 c 0.14,-0.42 0.23,-0.86 0.3,-1.3 l 0.08,-0.36 c 0.18,-1.16 0.37,-2.48 0.61,-4.01 5.47,-37.154 11.16,-95.806 14.17,-149.002 0,0 0.66,-11.883 -11.23,-11.883 h -129.77 -37.08 c -5.97,0 -10.79,4.833 -10.79,10.79 m 0.02,168.445 -0.02,-0.73 v 0.33 l 0.01,0.4 h 0.01" /><path
         id="path18"
         style="fill:#1969bc;fill-opacity:1;fill-rule:nonzero;stroke:none"
         d="m 691.34,341.02 v 0.011 -0.019 0.008 m 0,0.05 v 178.461 -10.789 c 0,5.969 -4.832,10.789 -10.793,10.789 h -37.078 -129.77 c -11.902,0 -11.226,-11.863 -11.226,-11.863 3.007,-53.215 8.695,-111.867 14.168,-149.027 0.23,-1.539 0.429,-2.879 0.609,-4.039 l 0.07,-0.321 c 0.078,-0.453 0.168,-0.883 0.297,-1.312 l 0.055,-0.188 0.019,0.008 c 1.278,-3.918 4.696,-6.801 8.809,-7.328 44.512,-6.301 96.609,-11.352 153.969,-14.813 5.84,-0.046 10.679,4.563 10.871,10.422" /><path
         id="path20"
         style="fill:#1969bc;fill-opacity:1;fill-rule:nonzero;stroke:none"
         d="m 885.582,876.75 c 0,0 0,-11.895 11.898,-11.895 h 84.122 c 0,0 11.89,0 11.89,11.895 v 33.867 133.983 c 0,0 0,11.9 -11.883,12.38 -22.738,0.93 -58.859,1.79 -84.129,1.96 0,0 -11.898,0.08 -11.898,-11.82 V 908.09 876.75" /><path
         id="path22"
         style="fill:#1969bc;fill-opacity:1;fill-rule:nonzero;stroke:none"
         d="m 864,337.199 v 178.75 -7.207 c 0,5.969 -4.828,10.789 -10.793,10.789 h 7.191 -7.191 -106.812 c 0,0 -11.887,0 -11.887,-11.883 V 473.77 339.801 c 0,0 0,-11.903 11.879,-12.391 29.398,-1.211 72.812,-2.121 105.715,-2.121 0,0 11.898,0 11.898,11.91" /><path
         id="path24"
         style="fill:#1969bc;fill-opacity:1;fill-rule:nonzero;stroke:none"
         d="m 734.504,876.75 c 0,0 0,-11.895 11.902,-11.895 h 84.117 c 0,0 11.887,0 11.887,11.895 v 170.37 c 0,0 0,11.9 -11.887,11.82 -25.289,-0.16 -61.398,-1.03 -84.132,-1.96 0,0 -11.887,-0.48 -11.887,-12.39 V 910.617 876.75" /><path
         id="path26"
         style="fill:#1969bc;fill-opacity:1;fill-rule:nonzero;stroke:none"
         d="m 645.57,562.707 h 33.871 c 0,0 11.903,0 11.903,11.895 v 84.121 c 0,0 0,11.894 -11.903,11.894 H 509.07 c 0,0 -11.898,0 -11.82,-11.894 0.16,-25.285 1.031,-61.399 1.965,-84.129 0,0 0.488,-11.887 12.387,-11.887 H 645.57" /><path
         id="path28"
         style="fill:#1969bc;fill-opacity:1;fill-rule:nonzero;stroke:none"
         d="m 497.258,725.676 c 0,0 -0.086,-11.906 11.82,-11.906 h 170.363 c 0,0 11.891,0 11.891,11.906 v 84.121 c 0,0 0,11.894 -11.891,11.894 H 645.574 511.598 c 0,0 -11.891,0 -12.383,-11.886 -0.938,-22.735 -1.789,-58.844 -1.957,-84.129" /><path
         id="path30"
         style="fill:#1969bc;fill-opacity:1;fill-rule:nonzero;stroke:none"
         d="m 691.34,875.645 v 167.715 c -0.211,5.88 -5.09,10.48 -10.942,10.39 -57.218,-3.48 -109.199,-8.5 -153.64,-14.77 l -0.149,-0.03 c -4.16,-0.5 -7.629,-3.41 -8.918,-7.36 h -0.019 l -0.055,-0.18 c -0.129,-0.42 -0.219,-0.86 -0.297,-1.3 l -0.078,-0.36 c -0.172,-1.16 -0.371,-2.48 -0.601,-4.01 -5.473,-37.154 -11.161,-95.806 -14.168,-149.002 0,0 -0.676,-11.883 11.226,-11.883 h 129.77 37.078 c 5.961,0 10.793,4.833 10.793,10.79 m -0.031,168.445 0.031,-0.73 v 0.33 l -0.024,0.4 h -0.007" /><path
         id="path32"
         style="fill:#1969bc;fill-opacity:1;fill-rule:nonzero;stroke:none"
         d="m 1036.66,561.953 c 0,0 0,-11.894 8.41,-20.301 0,0 -8.41,8.407 159.77,-159.781 0,0 8.42,-8.41 9.93,3.387 8.18,64.097 14.48,159.312 15.69,251.883 0,0 0.16,11.894 -11.74,11.894 h -172.47 c 0,0 -9.59,0 -9.59,-9.601 v -11.993 -32.363 -19.117 -14.008" /><path
         id="path34"
         style="fill:#1969bc;fill-opacity:1;fill-rule:nonzero;stroke:none"
         d="m 1230.88,702.805 c -0.13,40.976 -0.98,79.929 -2.1,107 0,0 -0.48,11.886 -12.38,11.886 h -167.85 c 0,0 -11.89,0 -11.89,-11.894 v -74.434 -31.269 c 0,0 0,-11.895 11.89,-11.895 h 171.56 c 5.89,0 10.67,4.735 10.77,10.606" /><path
         id="path36"
         style="fill:#1969bc;fill-opacity:1;fill-rule:nonzero;stroke:none"
         d="m 1174.33,351.352 c -115.87,115.859 -151.92,151.91 -163.12,163.121 -3.56,3.429 -7.63,5.304 -11.1,5.058 v 0.012 h -81.055 c 0,0 -11.891,0 -11.891,-11.906 V 337.48 c 0,0 0,-11.89 11.891,-11.742 92.585,1.211 187.785,7.512 251.875,15.692 0,0 11.8,1.511 3.4,9.922" /><path
         id="path38"
         style="fill:#1969bc;fill-opacity:1;fill-rule:nonzero;stroke:none"
         d="m 1979.42,432.648 c -15.94,25.887 -33.5,51.922 -52.66,78.067 -19.18,26.14 -39.22,51.289 -60.14,75.449 -20.92,24.149 -42.2,46.805 -63.87,67.977 -21.66,21.164 -42.95,39.707 -63.87,55.644 18.92,18.43 38.22,37.844 57.9,58.274 19.66,20.41 39.21,40.964 58.64,61.629 19.42,20.664 38.34,41.203 56.77,61.632 18.42,20.41 35.86,40.078 52.29,59.016 h -112.8 c -12.95,-14.453 -27.39,-30.637 -43.33,-48.566 -15.94,-17.93 -32.75,-36.473 -50.42,-55.645 -17.68,-19.18 -35.48,-38.105 -53.41,-56.777 -17.93,-18.672 -35.11,-36.231 -51.54,-52.668 v 213.656 h -94.13 V 432.648 h 94.13 v 232.325 c 19.42,-13.45 39.09,-29.395 59.01,-47.813 19.91,-18.43 39.22,-37.851 57.89,-58.273 18.68,-20.418 36.48,-41.571 53.41,-63.485 16.93,-21.925 31.87,-42.843 44.83,-62.754 z m 270.56,385.457 c -4.49,1.497 -10.46,3.11 -17.93,4.856 -7.47,1.738 -15.2,3.242 -23.16,4.492 -7.97,1.231 -15.94,2.235 -23.9,2.977 -7.98,0.754 -14.94,1.125 -20.92,1.125 -31.88,0 -60.88,-2.871 -87.03,-8.594 -26.14,-5.734 -47.93,-11.824 -65.36,-18.301 V 432.648 h 90.39 v 313.008 c 4.48,1.485 12.32,3.223 23.53,5.227 11.2,1.98 21.78,2.976 31.75,2.976 17.42,0 32.74,-1.367 45.94,-4.101 13.19,-2.746 23.53,-5.352 31,-7.84 z m 121.46,-309.636 c -13.45,8.222 -20.17,23.039 -20.17,44.453 0,10.945 2.49,20.039 7.47,27.254 4.97,7.226 11.58,12.824 19.8,16.816 8.21,3.977 17.42,6.731 27.64,8.227 10.2,1.48 20.28,2.234 30.25,2.234 11.45,0 21.91,-0.754 31.38,-2.234 9.45,-1.496 16.67,-3 21.66,-4.485 V 500.637 c -14.45,-3 -35.61,-4.485 -63.5,-4.485 -22.91,0 -41.08,4.106 -54.53,12.317 m -23.16,318.601 c -21.92,-3.992 -38.6,-7.968 -50.05,-11.953 l 11.21,-73.199 c 10.95,3.973 25.14,7.469 42.58,10.457 17.42,2.988 36.6,4.473 57.52,4.473 15.43,0 28.26,-1.985 38.47,-5.965 10.2,-3.988 18.42,-9.602 24.65,-16.809 6.22,-7.234 10.58,-15.578 13.07,-25.027 2.49,-9.465 3.74,-19.426 3.74,-29.887 v -14.941 c -12.46,2.992 -24.16,5.097 -35.11,6.347 -10.96,1.243 -21.42,1.875 -31.38,1.875 -21.41,0 -41.96,-2.117 -61.62,-6.347 -19.68,-4.246 -36.98,-11.199 -51.92,-20.926 -14.94,-9.707 -26.78,-22.285 -35.48,-37.715 -8.72,-15.441 -13.08,-34.363 -13.08,-56.769 0,-23.426 3.85,-43.086 11.58,-59.024 7.72,-15.937 18.42,-28.875 32.12,-38.836 13.69,-9.972 30.26,-17.179 49.68,-21.66 19.42,-4.492 40.83,-6.73 64.24,-6.73 35.36,0 67.1,2.129 95.25,6.347 28.13,4.231 49.17,7.856 63.12,10.832 v 236.809 c 0,22.898 -2.62,43.941 -7.84,63.125 -5.23,19.156 -13.95,35.476 -26.15,48.922 -12.21,13.437 -28.52,23.898 -48.93,31.371 -20.43,7.469 -45.57,11.211 -75.45,11.211 -24.91,0 -48.31,-1.996 -70.22,-5.981 m 415.49,185.27 -90.39,-14.945 V 432.648 h 90.39 v 179.286 c 13.44,-9.969 27.14,-22.032 41.08,-36.231 13.94,-14.187 27.64,-29.265 41.09,-45.191 13.45,-15.949 26.02,-32.375 37.72,-49.297 11.7,-16.945 22.04,-33.137 31,-48.567 h 104.59 c -8.94,16.922 -20.13,35.352 -33.55,55.282 -13.42,19.914 -27.83,39.843 -43.23,59.758 -15.41,19.91 -31.31,38.718 -47.71,56.406 -16.4,17.668 -32.05,32.734 -46.95,45.183 27.82,28.391 55.52,57.524 83.09,87.403 27.57,29.883 53.79,58.761 78.63,86.664 h -106.82 c -7.97,-9.477 -17.55,-20.547 -28.76,-33.254 -11.2,-12.688 -23.04,-25.899 -35.48,-39.59 -12.45,-13.699 -25.15,-27.395 -38.1,-41.074 -12.95,-13.711 -25.15,-26.524 -36.6,-38.477 z m 627.26,-299.926 c -9.22,25.137 -22.04,46.68 -38.47,64.609 -16.44,17.93 -36.23,31.747 -59.39,41.454 -23.16,9.718 -48.44,14.574 -75.82,14.574 -27.39,0 -52.55,-4.856 -75.45,-14.574 -22.91,-9.707 -42.71,-23.524 -59.39,-41.454 -16.69,-17.929 -29.63,-39.472 -38.84,-64.609 -9.22,-25.168 -13.82,-53.176 -13.82,-84.043 0,-30.891 4.6,-59.023 13.82,-84.426 9.21,-25.379 22.04,-47.05 38.47,-64.976 16.43,-17.934 36.1,-31.875 59.01,-41.836 22.91,-9.953 48.3,-14.945 76.2,-14.945 27.88,0 53.41,4.992 76.57,14.945 23.16,9.961 42.95,23.902 59.39,41.836 16.43,17.926 29.13,39.597 38.09,64.976 8.97,25.403 13.45,53.535 13.45,84.426 0,30.867 -4.61,58.875 -13.82,84.043 M 3287.2,534.992 c -16.7,-22.91 -39.97,-34.355 -69.85,-34.355 -29.88,0 -53.17,11.445 -69.85,34.355 -16.69,22.899 -25.02,54.031 -25.02,93.379 0,38.84 8.33,69.59 25.02,92.246 16.68,22.664 39.97,33.992 69.85,33.992 29.88,0 53.15,-11.328 69.85,-33.992 16.67,-22.656 25.02,-53.406 25.02,-92.246 0,-39.348 -8.35,-70.48 -25.02,-93.379 m -29.51,501.248 -109.81,-130.728 44.82,-40.344 121.76,118.035 z M 3762.3,550.305 c 13.68,-41.582 26.99,-80.801 39.92,-117.657 h 73.48 c 10.47,22.903 21.2,49.051 32.17,78.446 10.97,29.367 21.95,60.746 32.94,94.125 10.97,33.355 21.95,68.465 32.92,105.32 10.97,36.856 21.7,74.441 32.18,112.805 h -93.4 c -4.5,-20.918 -9.77,-43.457 -15.77,-67.61 -6,-24.16 -12.38,-48.808 -19.14,-73.957 -6.76,-25.144 -13.64,-49.675 -20.65,-73.574 -7,-23.914 -13.76,-45.828 -20.26,-65.738 -7.46,22.898 -14.79,46.558 -21.99,70.965 -7.2,24.394 -13.91,48.797 -20.12,73.203 -6.21,24.394 -12.05,48.191 -17.51,71.336 -5.46,23.168 -10.43,44.941 -14.91,65.375 h -69.47 c -4.49,-20.434 -9.6,-42.207 -15.35,-65.375 -5.74,-23.145 -11.86,-46.942 -18.34,-71.336 -6.49,-24.406 -13.36,-48.809 -20.59,-73.203 -7.24,-24.407 -14.61,-48.067 -22.09,-70.965 -7,19.91 -14.02,41.824 -21.02,65.738 -7,23.899 -13.76,48.43 -20.27,73.574 -6.52,25.149 -12.77,49.797 -18.77,73.957 -6,24.153 -11.25,46.692 -15.76,67.61 h -95.65 c 10.47,-38.364 21.19,-75.949 32.17,-112.805 10.97,-36.855 21.95,-71.965 32.92,-105.32 10.97,-33.379 21.96,-64.758 32.93,-94.125 10.97,-29.395 21.45,-55.543 31.43,-78.446 h 74.21 c 12.94,36.856 25.99,76.075 39.17,117.657 13.19,41.582 25.51,84.289 36.96,128.117 11.44,-43.828 23.98,-86.535 37.66,-128.117" /></g></g></svg>