<?xml version="1.0" encoding="UTF-8" standalone="no"?>
<svg
   xmlns:dc="http://purl.org/dc/elements/1.1/"
   xmlns:cc="http://creativecommons.org/ns#"
   xmlns:rdf="http://www.w3.org/1999/02/22-rdf-syntax-ns#"
   xmlns:svg="http://www.w3.org/2000/svg"
   xmlns="http://www.w3.org/2000/svg"
   viewBox="0 0 1122.52 793.70667"
   xml:space="preserve"
   id="svg2"
   version="1.1"><metadata
     id="metadata8"><rdf:RDF><cc:Work
         rdf:about=""><dc:format>image/svg+xml</dc:format><dc:type
           rdf:resource="http://purl.org/dc/dcmitype/StillImage" /></cc:Work></rdf:RDF></metadata><defs
     id="defs6"><clipPath
       id="clipPath20"
       clipPathUnits="userSpaceOnUse"><path
         id="path18"
         d="M 0,595.28 H 841.89 V 0 H 0 Z" /></clipPath></defs><g
     transform="matrix(1.3333333,0,0,-1.3333333,0,793.70667)"
     id="g10">
     <path
       id="path12"
       style="fill:#ffffff;fill-opacity:1;fill-rule:nonzero;stroke:none"
       d="M 0,0.003 H 841.89 V 595.278 H 0 Z" />
       <g
       id="g14"><g
         clip-path="url(#clipPath20)"
         id="g16"><g
           transform="translate(407.52,380.9932)"
           id="g22"><path
             id="path24"
             style="fill:#000000;fill-opacity:1;fill-rule:nonzero;stroke:none"
             d="m 0,0 v -9.587 h -3.946 c 0,3.206 -0.011,6.401 -0.031,9.587 -0.021,3.185 -0.031,6.32 -0.031,9.403 0,0.822 0.082,1.603 0.247,2.343 0.164,0.74 0.76,1.192 1.788,1.357 1.027,-0.124 1.623,-0.566 1.788,-1.326 C -0.021,11.015 0.062,10.225 0.062,9.403 0.02,6.32 0,3.185 0,0 m 5.056,7.245 c 0,2.343 -0.216,4.357 -0.648,6.043 -0.431,1.684 -1.716,3.123 -3.853,4.316 -0.74,0.286 -1.624,0.431 -2.651,0.431 -1.029,0 -1.83,-0.145 -2.405,-0.431 -2.179,-1.193 -3.474,-2.632 -3.884,-4.316 -0.412,-1.686 -0.617,-3.7 -0.617,-6.043 v -40.817 h 5.056 v 18.929 H 0 v -18.929 h 5.056 c 0,6.699 -0.011,13.492 -0.031,20.377 C 5.004,-6.31 5.015,0.503 5.056,7.245 M -20.1,17.356 h -5.056 V -25.31 c 0,-0.863 -0.082,-1.655 -0.246,-2.374 -0.165,-0.72 -0.74,-1.141 -1.727,-1.265 -1.069,0.041 -1.675,0.443 -1.819,1.203 -0.144,0.761 -0.215,1.573 -0.215,2.436 v 15.661 h -4.995 v -13.75 c -0.041,-2.343 0.155,-4.368 0.586,-6.073 0.432,-1.706 1.736,-3.135 3.915,-4.285 0.617,-0.288 1.5,-0.432 2.652,-0.432 1.026,0 1.808,0.144 2.342,0.432 2.179,1.15 3.484,2.579 3.916,4.285 0.432,1.705 0.647,3.73 0.647,6.073 0,2.137 -0.01,5.056 -0.03,8.756 -0.022,3.699 -0.032,7.562 -0.032,11.591 V 8.54 c 0,3.699 0.021,6.637 0.062,8.816 M -45.194,7.307 c 0,2.342 -0.216,4.356 -0.648,6.042 -0.431,1.685 -1.716,3.103 -3.853,4.255 -0.658,0.286 -1.541,0.431 -2.652,0.431 -1.028,0 -1.829,-0.145 -2.404,-0.431 -2.179,-1.193 -3.474,-2.632 -3.884,-4.316 -0.412,-1.686 -0.617,-3.7 -0.617,-6.043 v -30.644 c 0,-2.343 0.205,-4.368 0.617,-6.073 0.41,-1.706 1.705,-3.135 3.884,-4.285 0.575,-0.288 1.376,-0.432 2.404,-0.432 1.234,0 2.117,0.144 2.652,0.432 2.137,1.15 3.422,2.579 3.853,4.285 0.432,1.705 0.648,3.73 0.648,6.073 v 2.158 h -5.056 v -1.942 c 0,-0.062 0.02,-0.771 0.062,-2.127 0,-0.863 -0.083,-1.675 -0.247,-2.436 -0.165,-0.76 -0.761,-1.162 -1.788,-1.203 -1.028,0.124 -1.624,0.545 -1.788,1.265 -0.165,0.719 -0.247,1.511 -0.247,2.374 0.041,11.55 0.041,23.122 0,34.713 0,0.822 0.082,1.603 0.247,2.343 0.164,0.74 0.76,1.171 1.788,1.295 1.027,-0.083 1.623,-0.504 1.788,-1.264 0.164,-0.762 0.247,-1.552 0.247,-2.374 L -50.25,7.307 Z M -75.405,0 v -9.587 h -3.946 c 0,3.206 -0.011,6.401 -0.031,9.587 -0.021,3.185 -0.031,6.32 -0.031,9.403 0,0.822 0.082,1.603 0.247,2.343 0.164,0.74 0.76,1.192 1.788,1.357 1.027,-0.124 1.623,-0.566 1.788,-1.326 0.164,-0.762 0.246,-1.552 0.246,-2.374 C -75.385,6.32 -75.405,3.185 -75.405,0 m 4.408,13.288 c -0.431,1.684 -1.716,3.123 -3.853,4.316 -0.74,0.286 -1.625,0.431 -2.651,0.431 -1.029,0 -1.83,-0.145 -2.405,-0.431 -2.179,-1.193 -3.474,-2.632 -3.885,-4.316 -0.411,-1.686 -0.616,-3.7 -0.616,-6.043 v -40.817 h 5.056 v 18.929 h 3.946 v -18.929 h 5.055 c 0,6.699 -0.01,13.492 -0.03,20.377 -0.021,6.885 -0.011,13.698 0.03,20.44 0,2.343 -0.215,4.357 -0.647,6.043 m -29.564,-38.043 c 0,-0.987 -0.123,-1.933 -0.37,-2.836 -0.246,-0.905 -1.11,-1.358 -2.59,-1.358 h -0.862 v 41.62 h 0.862 c 1.48,0 2.344,-0.463 2.59,-1.388 0.247,-0.925 0.37,-1.86 0.37,-2.805 z m 4.347,37.641 c -0.473,2.117 -1.757,3.484 -3.853,4.101 -1.233,0.369 -2.775,0.524 -4.625,0.462 -1.85,-0.061 -3.453,-0.093 -4.809,-0.093 h -0.062 v -50.928 h 0.309 c 1.356,-0.042 2.918,-0.093 4.686,-0.155 1.766,-0.061 3.268,0.094 4.501,0.463 2.096,0.617 3.38,1.982 3.853,4.099 0.472,2.118 0.709,4.204 0.709,6.26 -0.082,9.864 -0.082,19.708 0,29.533 0,2.055 -0.237,4.141 -0.709,6.258 m -25.094,0.402 c -0.432,1.684 -1.716,3.123 -3.854,4.316 -0.739,0.286 -1.624,0.431 -2.651,0.431 -1.028,0 -1.83,-0.145 -2.404,-0.431 -2.179,-1.193 -3.474,-2.632 -3.885,-4.316 -0.411,-1.686 -0.616,-3.7 -0.616,-6.043 v -40.817 h 5.055 c 0,6.905 -0.01,14.057 -0.03,21.457 -0.021,7.399 -0.031,14.571 -0.031,21.518 0,0.822 0.081,1.603 0.246,2.343 0.164,0.74 0.761,1.192 1.789,1.357 1.026,-0.124 1.623,-0.566 1.788,-1.326 0.164,-0.762 0.246,-1.552 0.246,-2.374 -0.041,-6.947 -0.061,-14.119 -0.061,-21.518 v -21.457 h 5.055 c 0,6.699 -0.01,13.492 -0.03,20.377 -0.021,6.885 -0.011,13.698 0.03,20.44 0,2.343 -0.215,4.357 -0.647,6.043 m -29.564,-17.327 c 0,-7.275 0.02,-14.366 0.061,-21.271 0,-0.863 -0.082,-1.675 -0.246,-2.436 -0.165,-0.76 -0.761,-1.181 -1.788,-1.263 -1.028,0.123 -1.624,0.553 -1.788,1.294 -0.165,0.74 -0.246,1.542 -0.246,2.405 0,6.905 0.009,13.996 0.03,21.271 0.02,7.276 0.031,14.407 0.031,21.395 h -5.056 v -40.755 c 0,-2.343 0.205,-4.368 0.617,-6.073 0.41,-1.706 1.705,-3.135 3.884,-4.285 0.575,-0.288 1.376,-0.432 2.405,-0.432 1.11,0 1.993,0.144 2.651,0.432 2.137,1.15 3.422,2.579 3.854,4.285 0.431,1.705 0.647,3.73 0.647,6.073 v 40.755 h -5.056 z m -29.595,21.026 c -2.179,-0.494 -3.474,-1.861 -3.885,-4.101 -0.411,-2.24 -0.616,-4.367 -0.616,-6.381 v -26.143 c 0,-4.645 0.02,-9.289 0.061,-13.934 h 4.994 c -0.083,7.686 -0.083,15.434 0,23.244 v 0.617 h 2.005 c 0.471,0 1.16,0.02 2.065,0.062 v 4.809 h -4.07 c 0,2.22 -0.01,4.439 -0.03,6.659 -0.021,2.22 -0.031,4.439 -0.031,6.659 0,0.945 0.123,1.88 0.37,2.805 0.247,0.925 1.13,1.388 2.651,1.388 h 5.981 v 4.685 c -1.357,0 -2.97,0.032 -4.84,0.093 -1.871,0.062 -3.422,-0.093 -4.655,-0.462" /></g><g
           transform="translate(604.9434,398.3496)"
           id="g26"><path
             id="path28"
             style="fill:#78162c;fill-opacity:1;fill-rule:nonzero;stroke:none"
             d="m 0,0 v -4.748 c 0.493,-0.041 1.233,-0.041 2.22,0 0.987,0.041 1.746,0.041 2.28,0 0,-7.44 0.021,-15.147 0.063,-23.121 0.041,-7.975 0.081,-15.661 0.124,-23.059 h 4.994 v 46.18 h 4.684 V 0 Z m -15.783,-18.004 c 0,-0.987 -0.123,-1.933 -0.369,-2.836 -0.247,-0.905 -1.112,-1.356 -2.592,-1.356 H -19.73 V 0 h -5.056 v -50.928 h 5.056 v 23.984 h 0.986 c 1.48,-0.042 2.345,-0.514 2.592,-1.418 0.246,-0.905 0.369,-1.829 0.369,-2.775 l 0.061,-19.791 h 4.994 v 17.942 c 0,1.438 -0.103,2.918 -0.308,4.439 -0.206,1.52 -0.679,2.836 -1.418,3.946 0.739,1.068 1.212,2.373 1.418,3.915 0.205,1.541 0.308,3.052 0.308,4.532 v 16.092 h -5.055 z M -45.379,-0.37 c -2.098,-0.616 -3.372,-1.984 -3.822,-4.1 -0.453,-2.117 -0.68,-4.203 -0.68,-6.259 v -29.656 c 0,-2.467 0.287,-4.656 0.864,-6.567 0.575,-1.911 1.788,-3.175 3.638,-3.792 1.356,-0.33 2.948,-0.442 4.778,-0.339 1.828,0.103 3.401,0.155 4.716,0.155 v 5.241 h -5.98 c -1.521,0 -2.405,0.379 -2.652,1.14 -0.247,0.76 -0.369,1.634 -0.369,2.62 l 0.061,14.243 v 0.679 c 0.864,0 1.532,-0.011 2.004,-0.032 0.472,-0.021 1.162,-0.01 2.067,0.032 v 4.809 h -4.071 c 0,2.219 -0.01,4.439 -0.029,6.658 -0.022,2.22 -0.032,4.44 -0.032,6.66 0,0.945 0.122,1.88 0.369,2.805 0.247,0.925 1.131,1.387 2.652,1.387 h 5.98 V 0 c -1.355,0 -2.969,0.031 -4.84,0.093 C -42.596,0.155 -44.146,0 -45.379,-0.37 M -60.978,0 h -5.055 v -42.667 c 0,-0.863 -0.084,-1.655 -0.247,-2.374 -0.165,-0.719 -0.741,-1.14 -1.727,-1.264 -1.068,0.041 -1.675,0.442 -1.818,1.203 -0.146,0.76 -0.216,1.572 -0.216,2.435 v 15.662 h -4.995 v -13.75 c -0.041,-2.343 0.155,-4.368 0.586,-6.074 0.431,-1.706 1.737,-3.134 3.916,-4.285 0.616,-0.288 1.5,-0.431 2.651,-0.431 1.026,0 1.809,0.143 2.343,0.431 2.177,1.151 3.484,2.579 3.915,4.285 0.432,1.706 0.647,3.731 0.647,6.074 0,2.136 -0.009,5.056 -0.031,8.755 -0.021,3.699 -0.031,7.563 -0.031,11.592 v 11.592 c 0,3.699 0.021,6.637 0.062,8.816 m -30.151,-42.728 c 0,-0.863 -0.081,-1.675 -0.246,-2.436 -0.163,-0.76 -0.762,-1.163 -1.787,-1.202 -1.027,0.123 -1.614,0.544 -1.758,1.264 -0.143,0.719 -0.216,1.511 -0.216,2.374 v 34.774 c 0,0.823 0.073,1.604 0.216,2.343 0.144,0.74 0.731,1.172 1.758,1.295 1.025,-0.083 1.624,-0.504 1.787,-1.264 0.165,-0.761 0.246,-1.551 0.246,-2.374 z m 0.494,42.975 c -0.659,0.287 -1.541,0.432 -2.651,0.432 -1.068,0 -1.85,-0.145 -2.343,-0.432 -2.22,-1.193 -3.535,-2.631 -3.945,-4.316 -0.411,-1.686 -0.617,-3.7 -0.617,-6.043 v -30.643 c 0,-2.343 0.206,-4.368 0.617,-6.074 0.41,-1.706 1.725,-3.134 3.945,-4.285 0.493,-0.288 1.275,-0.431 2.343,-0.431 1.11,0 1.992,0.143 2.651,0.431 2.136,1.151 3.432,2.579 3.884,4.285 0.453,1.706 0.679,3.731 0.679,6.074 v 30.643 c 0,2.343 -0.226,4.357 -0.679,6.043 -0.452,1.685 -1.748,3.123 -3.884,4.316 m -25.71,-18.312 c 0,-0.987 -0.123,-1.933 -0.37,-2.837 -0.247,-0.904 -1.109,-1.356 -2.589,-1.356 h -0.863 v 17.572 h 0.863 c 1.48,0 2.342,-0.462 2.589,-1.387 0.247,-0.925 0.37,-1.86 0.37,-2.805 z m 0.493,17.695 c -1.232,0.37 -2.774,0.525 -4.624,0.463 C -122.325,0.031 -123.929,0 -125.284,0 h -0.063 v -50.928 h 5.18 v 23.923 h 0.863 c 1.48,0 2.342,-0.463 2.589,-1.388 0.247,-0.925 0.37,-1.86 0.37,-2.806 v -19.729 h 5.056 v 17.88 c 0,1.438 -0.103,2.928 -0.308,4.47 -0.206,1.541 -0.677,2.867 -1.418,3.977 0.741,1.068 1.212,2.363 1.418,3.884 0.205,1.521 0.308,3.022 0.308,4.501 v 5.487 c 0,2.056 -0.237,4.142 -0.709,6.259 -0.473,2.116 -1.757,3.484 -3.854,4.1 m -25.586,-17.757 c 0,-0.986 -0.125,-1.922 -0.372,-2.805 -0.246,-0.885 -1.13,-1.326 -2.651,-1.326 h -0.801 v 17.51 h 0.801 c 1.521,0 2.405,-0.461 2.651,-1.387 0.247,-0.925 0.372,-1.84 0.372,-2.743 z m 0.493,17.695 c -1.276,0.329 -2.827,0.473 -4.657,0.432 -1.829,-0.041 -3.421,-0.062 -4.777,-0.062 h -0.062 v -50.866 h 5.179 v 23.923 c 1.931,0 3.37,0.143 4.317,0.431 2.095,0.575 3.37,1.921 3.822,4.038 0.452,2.117 0.678,4.203 0.678,6.259 v 5.487 c 0,2.055 -0.226,4.141 -0.678,6.258 -0.452,2.117 -1.727,3.484 -3.822,4.1" /></g><g
           transform="translate(619.3379,332.3174)"
           id="g30"><path
             id="path32"
             style="fill:#78162c;fill-opacity:1;fill-rule:nonzero;stroke:none"
             d="m 0,0 -200.653,-0.002 c -37.574,0 -68.033,-30.459 -68.033,-68.032 0,-2.557 0.158,-5.075 0.435,-7.558 h 46.215 c -0.836,2.364 -1.295,4.907 -1.295,7.558 0,12.524 10.152,22.678 22.678,22.678 0,0 103.514,0.006 103.563,0.006 1.764,0 3.191,-1.427 3.191,-3.19 0,-0.729 -0.253,-1.392 -0.664,-1.928 l -64.179,-85.582 143.506,-0.015 v 45.352 h -52.805 z" /></g><g
           transform="translate(294.3623,279.4014)"
           id="g34"><path
             id="path36"
             style="fill:#78162c;fill-opacity:1;fill-rule:nonzero;stroke:none"
             d="M 0,0 H -26.457 V 15.119 H 0 c 4.175,0 7.56,-3.384 7.56,-7.559 C 7.56,3.385 4.175,0 0,0 m 191.921,-7.56 h -46.217 c 0.836,-2.364 1.295,-4.907 1.295,-7.558 0,-12.524 -10.152,-22.677 -22.677,-22.677 -14.996,0 -76.284,0.001 -95.37,0.001 -0.046,-0.003 -0.09,-0.014 -0.136,-0.014 -1.379,0 -2.495,1.117 -2.495,2.495 0,1.037 0.631,1.924 1.53,2.301 14.86,7.447 25.063,22.818 25.063,40.572 0,25.048 -20.306,45.354 -45.354,45.354 H -71.811 V -83.149 h 45.354 v 45.35 L 7.56,-83.149 h 116.762 c 37.574,0 68.032,30.459 68.032,68.031 0,2.557 -0.158,5.076 -0.433,7.558" /></g></g></g></g></svg>